<svg xmlns="http://www.w3.org/2000/svg" viewBox="0 0 100 100" width="200" height="200">
  <defs>
    <linearGradient id="goldStroke" x1="0%" y1="0%" x2="100%" y2="100%">
      <stop offset="0%" stop-color="#FCE195" />
      <stop offset="30%" stop-color="#D49A2A" />
      <stop offset="70%" stop-color="#B27D15" />
      <stop offset="100%" stop-color="#8A5E0B" />
    </linearGradient>
    
    <linearGradient id="goldFill" x1="0%" y1="0%" x2="100%" y2="100%">
      <stop offset="0%" stop-color="#FAD97D" />
      <stop offset="100%" stop-color="#D49A2A" />
    </linearGradient>

    <style>
      .outline {
        fill: none;
        stroke: url(#goldStroke);
        stroke-width: 4.5;
        stroke-linecap: round;
        stroke-linejoin: round;
      }
      .peel {
        fill: url(#goldFill);
        stroke: url(#goldStroke);
        stroke-width: 3.5;
        stroke-linejoin: round;
      }
    </style>
  </defs>

  <path class="outline" d="M28 33.5 V18 A1 1 0 0 1 29 17 H34 A1 1 0 0 1 35 18 V27.5" />

  <path class="outline" d="M20 75 V40 L50 15 L62 25 C62 38, 70 48, 80 48 V75 A5 5 0 0 1 75 80 H25 A5 5 0 0 1 20 75 Z" />

  <path class="peel" d="M62 25 C62 38, 70 48, 80 48 C68 45, 62 35, 62 25 Z" />

  <path class="outline" d="M34 44 H62 A4 4 0 0 1 66 48 V60 A4 4 0 0 1 62 64 H48 L41 71 A1 1 0 0 1 39 70 V64 H34 A4 4 0 0 1 30 60 V48 A4 4 0 0 1 34 44 Z" />
</svg>
