<svg xmlns="http://www.w3.org/2000/svg" viewBox="0 0 380 100" width="100%" height="100%">
  <defs>
    <linearGradient id="logoGold" x1="0%" y1="0%" x2="100%" y2="100%">
      <stop offset="0%" stop-color="#FCE195" />
      <stop offset="40%" stop-color="#D49A2A" />
      <stop offset="70%" stop-color="#B27D15" />
      <stop offset="100%" stop-color="#8A5E0B" />
    </linearGradient>
    
    <linearGradient id="peelGold" x1="0%" y1="0%" x2="100%" y2="100%">
      <stop offset="0%" stop-color="#FAD97D" />
      <stop offset="100%" stop-color="#9C6B0D" />
    </linearGradient>

    <style>
      .brand-text { 
        font-family: 'Segoe UI', Roboto, Helvetica, Arial, sans-serif; 
        font-weight: 800; 
        font-size: 38px; 
        fill: #2D3748; 
        letter-spacing: 1.5px;
      }
      .icon-stroke {
        fill: none;
        stroke: url(#logoGold);
        stroke-width: 4.5;
        stroke-linecap: round;
        stroke-linejoin: round;
      }
      .icon-fill {
        fill: url(#peelGold);
        stroke: url(#logoGold);
        stroke-width: 2.5;
      }
    </style>
  </defs>

  <g transform="translate(10, 10)">
    <path class="icon-stroke" d="M22 28 V15 A1 1 0 0 1 23 14 H28 A1 1 0 0 1 29 15 V22" />
    
    <path class="icon-stroke" d="M15 70 V35 L45 12 L58 22 C58 34, 66 42, 75 42 V70 A5 5 0 0 1 70 75 H20 A5 5 0 0 1 15 70 Z" />
    
    <path class="icon-fill" d="M58 22 C58 34, 66 42, 75 42 C64 40, 58 32, 58 22 Z" />
    
    <path class="icon-stroke" d="M30 42 H54 A3 3 0 0 1 57 45 V54 A3 3 0 0 1 54 57 H42 L36 63 V57 H30 A3 3 0 0 1 27 54 V45 A3 3 0 0 1 30 42 Z" />
  </g>

  <text x="100" y="84" class="brand-text">STORYBASE</text>
</svg>
